<svg xmlns="http://www.w3.org/2000/svg" xmlns:xlink="http://www.w3.org/1999/xlink" width="1920" zoomAndPan="magnify" viewBox="0 0 1440 809.999993" height="1080" preserveAspectRatio="xMidYMid meet" version="1.0"><defs><g/><clipPath id="771ad3db21"><path d="M 540 225 L 900 225 L 900 585 L 540 585 Z M 540 225 " clip-rule="nonzero"/></clipPath><clipPath id="88d9acd6d8"><path d="M 720 225 C 620.589844 225 540 305.589844 540 405 C 540 504.410156 620.589844 585 720 585 C 819.410156 585 900 504.410156 900 405 C 900 305.589844 819.410156 225 720 225 Z M 720 225 " clip-rule="nonzero"/></clipPath></defs><g clip-path="url(#771ad3db21)"><g clip-path="url(#88d9acd6d8)"><path fill="#ff0000" d="M 540 225 L 900 225 L 900 585 L 540 585 Z M 540 225 " fill-opacity="1" fill-rule="nonzero"/></g></g><g fill="#ffffff" fill-opacity="1"><g transform="translate(608.242128, 463.125026)"><g><path d="M 65.90625 -116.6875 C 70.039062 -116.6875 73.085938 -116.335938 75.046875 -115.640625 C 77.015625 -114.953125 78.425781 -113.816406 79.28125 -112.234375 C 80.445312 -109.785156 81.03125 -106.492188 81.03125 -102.359375 L 81.03125 -40.75 C 81.03125 -29.601562 76.992188 -19.757812 68.921875 -11.21875 C 60.859375 -2.675781 50.566406 1.59375 38.046875 1.59375 C 31.046875 1.59375 24.835938 0.0507812 19.421875 -3.03125 C 14.535156 -5.675781 11.140625 -8.0625 9.234375 -10.1875 L 7.953125 -11.46875 C 4.242188 -15.382812 2.390625 -18.75 2.390625 -21.5625 C 2.390625 -24.375 4.242188 -27.691406 7.953125 -31.515625 C 11.671875 -35.335938 14.960938 -37.25 17.828125 -37.25 C 20.691406 -37.25 23.875 -35.5 27.375 -32 C 30.882812 -28.5 34.679688 -26.75 38.765625 -26.75 C 42.847656 -26.75 46.210938 -28.125 48.859375 -30.875 C 51.515625 -33.632812 52.84375 -37.296875 52.84375 -41.859375 L 52.84375 -101.40625 C 52.84375 -107.769531 53.90625 -111.851562 56.03125 -113.65625 C 58.476562 -115.675781 61.769531 -116.6875 65.90625 -116.6875 Z M 65.90625 -116.6875 "/></g></g></g><g fill="#ffffff" fill-opacity="1"><g transform="translate(695.636063, 463.125026)"><g><path d="M 6.375 -69.890625 C 6.375 -72.328125 6.453125 -74.15625 6.609375 -75.375 C 6.765625 -76.59375 7.210938 -78 7.953125 -79.59375 C 9.441406 -82.351562 13.582031 -83.734375 20.375 -83.734375 C 25.46875 -83.734375 29.078125 -82.832031 31.203125 -81.03125 C 33.003906 -79.539062 33.957031 -77.257812 34.0625 -74.1875 C 34.164062 -73.125 34.21875 -71.582031 34.21875 -69.5625 L 34.21875 -13.84375 C 34.21875 -11.40625 34.140625 -9.578125 33.984375 -8.359375 C 33.828125 -7.140625 33.320312 -5.734375 32.46875 -4.140625 C 31.09375 -1.378906 27.007812 0 20.21875 0 C 13.53125 0 9.441406 -1.429688 7.953125 -4.296875 C 7.210938 -5.890625 6.765625 -7.269531 6.609375 -8.4375 C 6.453125 -9.601562 6.375 -11.460938 6.375 -14.015625 Z M 32.546875 -99.40625 C 31.753906 -97.875 30.347656 -96.785156 28.328125 -96.140625 C 26.316406 -95.503906 23.640625 -95.1875 20.296875 -95.1875 C 16.953125 -95.1875 14.269531 -95.503906 12.25 -96.140625 C 10.238281 -96.785156 8.832031 -97.898438 8.03125 -99.484375 C 7.238281 -101.078125 6.765625 -102.484375 6.609375 -103.703125 C 6.453125 -104.929688 6.375 -106.765625 6.375 -109.203125 C 6.375 -111.640625 6.453125 -113.46875 6.609375 -114.6875 C 6.765625 -115.914062 7.210938 -117.269531 7.953125 -118.75 C 9.441406 -121.613281 13.582031 -123.046875 20.375 -123.046875 C 27.0625 -123.046875 31.09375 -121.613281 32.46875 -118.75 C 33.320312 -117.15625 33.828125 -115.75 33.984375 -114.53125 C 34.140625 -113.3125 34.21875 -111.476562 34.21875 -109.03125 C 34.21875 -106.59375 34.140625 -104.765625 33.984375 -103.546875 C 33.828125 -102.328125 33.347656 -100.945312 32.546875 -99.40625 Z M 32.546875 -99.40625 "/></g></g></g><g fill="#ffffff" fill-opacity="1"><g transform="translate(736.228873, 463.125026)"><g><path d="M 3.984375 -41.859375 C 3.984375 -54.597656 8.4375 -65.101562 17.34375 -73.375 C 26.257812 -81.65625 36.445312 -85.796875 47.90625 -85.796875 C 59.375 -85.796875 69.507812 -81.679688 78.3125 -73.453125 C 87.125 -65.234375 91.53125 -54.757812 91.53125 -42.03125 C 91.53125 -33.21875 89.25 -25.390625 84.6875 -18.546875 C 80.125 -11.703125 74.578125 -6.660156 68.046875 -3.421875 C 61.523438 -0.179688 54.757812 1.4375 47.75 1.4375 C 40.75 1.4375 33.957031 -0.285156 27.375 -3.734375 C 20.800781 -7.191406 15.257812 -12.285156 10.75 -19.015625 C 6.238281 -25.753906 3.984375 -33.367188 3.984375 -41.859375 Z M 37.25 -30.484375 C 40.644531 -27.878906 44.09375 -26.578125 47.59375 -26.578125 C 51.09375 -26.578125 54.59375 -27.90625 58.09375 -30.5625 C 61.601562 -33.21875 63.359375 -37.144531 63.359375 -42.34375 C 63.359375 -47.539062 61.710938 -51.410156 58.421875 -53.953125 C 55.128906 -56.503906 51.570312 -57.78125 47.75 -57.78125 C 43.9375 -57.78125 40.382812 -56.453125 37.09375 -53.796875 C 33.800781 -51.148438 32.15625 -47.253906 32.15625 -42.109375 C 32.15625 -36.960938 33.851562 -33.085938 37.25 -30.484375 Z M 37.25 -30.484375 "/></g></g></g></svg>